PathFileType	4	(X/Y/Z)	T1_P1_Vision_NoMovement_1_0-649.trc
DataRate	CameraRate	NumFrames	NumMarkers	Units	OrigDataRate	OrigDataStartFrame	OrigNumFrames
60	60	4	27	m	60	324	649
Frame#	Time	RHip			RKnee			RAnkle			RBigToe			RSmallToe			RHeel			LHip			LKnee			LAnkle			LBigToe			LSmallToe			LHeel			Neck			Head			Nose			RShoulder			RElbow			RWrist			RThumb			RIndex			RPinky			LShoulder			LElbow			LWrist			LThumb			LIndex			LPinky		
		X1	Y1	Z1	X2	Y2	Z2	X3	Y3	Z3	X4	Y4	Z4	X5	Y5	Z5	X6	Y6	Z6	X7	Y7	Z7	X8	Y8	Z8	X9	Y9	Z9	X10	Y10	Z10	X11	Y11	Z11	X12	Y12	Z12	X13	Y13	Z13	X14	Y14	Z14	X15	Y15	Z15	X16	Y16	Z16	X17	Y17	Z17	X18	Y18	Z18	X19	Y19	Z19	X20	Y20	Z20	X21	Y21	Z21	X22	Y22	Z22	X23	Y23	Z23	X24	Y24	Z24	X25	Y25	Z25	X26	Y26	Z26	X27	Y27	Z27
325	5.416666666666667	-66.40863843323186	3789.1714575708966	-545.8919021948755	284.3619258831033	3975.1105678370745	-526.3828012460544	639.0573752570147	4153.744640845697	-532.8381963885967	711.6355944213807	4070.388728015057	-479.3116248364861	699.1634254716781	4017.003415770184	-519.1470508908717	681.8035454502444	4195.642441605917	-538.2711822256199	-108.0994914503677	3900.379520656968	-355.98065183485363	241.27983061767392	4004.32792408626	-370.2681551939146	619.1213896582879	4249.964855154406	-448.579499045938	670.7791122096172	3999.254444620141	-345.89930188541774	682.7090376031437	4127.949007167722	-344.88994314381114	675.344124649923	4318.510685490449	-492.47994176258766	-677.258513268955	3667.006701119607	-477.4655002028146	-912.9561773438463	3523.2542357298266	-418.3151636790715	-784.9980422839047	3558.374191319872	-389.14484708118323	-556.9811136178171	3635.1034642871405	-629.6315058227203	-296.3135867247254	3718.7593353233065	-696.19814854713	-27.762186315573206	3651.6182999512903	-600.8385589735745	85.47812840000459	3750.923301519959	-554.0340635562771	118.47623040756456	3750.2999962558783	-563.1878516855296	105.45796168370262	3707.870200472523	-587.539387324041	-610.4123486077882	3756.6974100591588	-357.76017843532463	-391.740221695229	3981.839331582223	-346.485617173971	-127.10102133509814	3940.193833697838	-242.45088361770553	16.031476212838832	3901.093519340405	-273.33641455677537	21.27508457129062	3931.7324355632313	-212.16758424577716	-1.9880353558032269	3976.971860042923	-217.03533715230148
326	5.433333333333334	-67.17014416931305	3770.880177542256	-531.8527515917623	284.5386256034036	3975.4477062108954	-526.2805392239903	645.2167832418086	4155.616766442433	-531.3622577920293	706.2345080574439	4039.49668052874	-472.40989125098	688.3942116893255	3966.4318841866398	-497.6362536581021	668.6549562937439	4160.696855542175	-523.59725596462	-108.08886546756659	3900.1754679237474	-355.92658995659104	241.27211112481172	4004.492923934839	-370.21422456642995	613.949089838605	4226.245918564185	-432.7565383429202	665.0257460919322	3996.171041405839	-346.80220984521	676.6753887909744	4125.054980734989	-345.61540037828524	669.2963746660976	4295.056838201668	-476.0554988540181	-677.2494273969463	3666.8849794864773	-477.35966067631716	-912.9111065650842	3523.3548853441866	-418.31868846732414	-785.004036906209	3558.471445160314	-389.20488418717406	-557.0063236003866	3635.191737827353	-629.7062860448847	-291.4089557503238	3721.8193841093002	-697.6000803279209	-27.822407752366047	3651.3907830162325	-600.7235838450715	85.13640890193423	3750.6530177954887	-553.9126605020931	113.69516062185474	3747.8061549862014	-563.3763019196937	101.15562813075624	3707.4780929037665	-587.7601868036215	-612.5277934007181	3774.464221099211	-370.81902605869806	-391.7555455184639	3981.7227725434323	-346.4300779896223	-127.21013017188025	3939.9581302374972	-242.3985449910833	15.963012659221716	3901.1297497118067	-273.48686733334256	20.790519299974353	3904.9286324795767	-207.93296030120814	-2.0359805257289967	3976.5339455370236	-217.04246085881482
327	5.45	-66.37430096838042	3788.739489793082	-545.7491482695445	284.4696327674696	3975.236791117237	-526.4367267196781	633.8615837778258	4154.16101569941	-533.2103295976135	711.6993831169001	4071.2075705586167	-479.76644129204846	699.1146556167031	4017.6739343809495	-519.3712347217677	680.7564336914799	4196.380134585623	-532.4592165517914	-108.06451547825813	3900.046997125899	-355.7856996656563	241.2521574081387	4004.150260909218	-370.1903947657964	620.45773612491	4252.068720868623	-455.5999289022775	665.6996390114159	3995.4005544134816	-351.58250951634835	681.1419326899015	4154.30211078097	-350.54990107613537	670.9264581051243	4298.352085072908	-482.82002628162195	-677.2455513133771	3667.07926555209	-477.47971854135693	-916.6220671067567	3539.4254757035205	-430.8222292492047	-785.0329360575349	3558.391927596512	-389.16338201339784	-558.7630727128734	3652.4452808076435	-644.4994814523503	-291.3985378828466	3721.7987342959614	-697.543031530046	-27.78807638946895	3651.5124835574957	-600.7385830892046	85.1542212564074	3750.822677436869	-554.021136623387	118.25456525678341	3750.3065165439984	-563.308785904599	101.19188328357426	3707.8254386738845	-587.9318758882096	-612.4081944260873	3774.901995719184	-370.80046582217454	-386.3093763692303	3983.4031539845523	-345.85233963696567	-127.27989906966846	3939.681401681928	-242.2902915661668	15.712400883104316	3900.683891093623	-273.4782137124191	21.26723415256535	3905.888207469898	-214.3137327726344	-2.111419076790108	3976.336706373584	-216.99251704905504
328	5.466666666666667	-67.11724579352851	3770.616539309128	-531.7141179812681	284.5931156580746	3975.378462667135	-526.3564767461069	638.8285654578196	4152.863850337598	-532.3731383539329	700.2190406087516	4036.5263805827035	-473.12547483865	693.4756350649634	3986.3644903174236	-511.9831484729613	676.8150090695302	4164.67429794008	-531.371380118857	-108.01063155808099	3900.052736428647	-355.7858203831776	241.44064341094327	4004.4202998205765	-370.20248829176677	619.0311211709745	4249.633397709427	-448.33844246275544	664.8407013497558	3995.6347208196357	-346.61220775573554	676.5833412230913	4124.602038744759	-345.472887138145	676.7481720018197	4322.150049807177	-499.209267011926	-679.6114838676909	3683.766380314956	-490.76445752539234	-912.9337627807271	3523.3665185414247	-418.36059919104264	-785.0213162938668	3558.4523304920754	-389.1903255703293	-558.8375866323751	3652.5780503678784	-644.5720241216753	-291.3844168860873	3721.705386785412	-697.5245332996659	-27.77206241491512	3651.5260258529283	-600.7490278378611	85.09601481148687	3750.555518638734	-553.8215095818524	118.29743594764713	3749.797007331185	-562.9418080790894	101.23603403263296	3707.5452354609497	-587.6905805861275	-612.4955571243459	3774.6401780376273	-370.83694739610604	-391.79184972405136	3981.650106493106	-346.38212252173855	-127.27634247978368	3939.494500651299	-242.19603285276028	15.83657491613043	3900.744091858367	-273.2278458360192	20.63133237638149	3904.7164757660044	-207.74644053884555	-2.1746909603819815	3976.0968607165137	-216.7843469985288
